<svg width="159" height="48" viewBox="0 0 159 48" fill="none" xmlns="http://www.w3.org/2000/svg">
<path d="M15.8047 35.6875C15.2578 36.0312 14.7578 36.3281 14.3047 36.5781C13.8516 36.8125 13.3984 37 12.9453 37.1406C12.4922 37.2969 12.0234 37.4062 11.5391 37.4688C11.0547 37.5469 10.5234 37.5859 9.94531 37.5859C8.49219 37.5859 7.1875 37.3906 6.03125 37C4.89062 36.5938 3.92188 36.0469 3.125 35.3594C2.34375 34.6562 1.74219 33.8359 1.32031 32.8984C0.898438 31.9453 0.6875 30.9141 0.6875 29.8047C0.6875 28.6797 0.898438 27.6406 1.32031 26.6875C1.75781 25.7344 2.38281 24.9219 3.19531 24.25C4.00781 23.5625 5 23.0312 6.17188 22.6562C7.35938 22.2656 8.71094 22.0703 10.2266 22.0703C11.3359 22.0703 12.3438 22.1328 13.25 22.2578C14.1719 22.3672 15.0234 22.5078 15.8047 22.6797V21.9297C15.8047 21.3203 15.6875 20.7969 15.4531 20.3594C15.2188 19.9062 14.8906 19.5391 14.4688 19.2578C14.0469 18.9609 13.5391 18.75 12.9453 18.625C12.3516 18.4844 11.7031 18.4141 11 18.4141C9.53125 18.4141 8.23438 18.5625 7.10938 18.8594C6 19.1406 4.92969 19.5547 3.89844 20.1016L1.64844 15.5547C3.24219 14.4609 4.90625 13.625 6.64062 13.0469C8.39062 12.4688 10.2422 12.1797 12.1953 12.1797C13.7109 12.1797 15.1094 12.3516 16.3906 12.6953C17.6875 13.0234 18.7969 13.5703 19.7188 14.3359C20.6406 15.0859 21.3594 16.0703 21.875 17.2891C22.4062 18.5078 22.6719 19.9922 22.6719 21.7422V30.5781H25.9297V37H15.8047V35.6875ZM10.4609 32.0547C11.5703 32.0547 12.5781 31.875 13.4844 31.5156C14.3906 31.1562 15.1641 30.7188 15.8047 30.2031V27.1094H10.1797C9.82031 27.1094 9.46875 27.1641 9.125 27.2734C8.78125 27.3828 8.46875 27.5391 8.1875 27.7422C7.92188 27.9453 7.70312 28.1953 7.53125 28.4922C7.375 28.7891 7.29688 29.1328 7.29688 29.5234C7.29688 30.2422 7.55469 30.8438 8.07031 31.3281C8.60156 31.8125 9.39844 32.0547 10.4609 32.0547ZM49.0625 21.1094C48.3906 20.2656 47.6406 19.6328 46.8125 19.2109C45.9844 18.7734 45.0078 18.5859 43.8828 18.6484C42.9766 18.5859 42.1484 18.7109 41.3984 19.0234C40.6641 19.3359 40.0234 19.7734 39.4766 20.3359C38.9453 20.8984 38.5312 21.5703 38.2344 22.3516C37.9375 23.1172 37.7891 23.9844 37.7891 24.9531C37.7891 25.8125 37.9453 26.625 38.2578 27.3906C38.5703 28.1562 38.9922 28.8203 39.5234 29.3828C40.0703 29.9297 40.7109 30.3594 41.4453 30.6719C42.1953 30.9844 43.0078 31.1719 43.8828 31.2344C44.6172 31.1719 45.2812 31.0234 45.875 30.7891C46.4844 30.5391 47.0234 30.2266 47.4922 29.8516C47.9609 29.4609 48.3594 29.0312 48.6875 28.5625C49.0312 28.0781 49.2969 27.625 49.4844 27.2031L55.9297 28.9844C55.6641 29.9219 55.2031 30.8984 54.5469 31.9141C53.9062 32.9297 53.0625 33.8594 52.0156 34.7031C50.9844 35.5312 49.75 36.2188 48.3125 36.7656C46.8906 37.3125 45.2656 37.5859 43.4375 37.5859C41.5781 37.5859 39.8672 37.25 38.3047 36.5781C36.7422 35.8906 35.3984 34.9609 34.2734 33.7891C33.1484 32.6172 32.2656 31.2422 31.625 29.6641C31 28.0859 30.6875 26.3906 30.6875 24.5781C30.6875 22.7812 31.0078 21.1172 31.6484 19.5859C32.3047 18.0391 33.2031 16.6953 34.3438 15.5547C35.4844 14.3984 36.8359 13.5 38.3984 12.8594C39.9766 12.2188 41.6875 11.9297 43.5312 11.9922C44.8438 11.9297 46.1172 12.0781 47.3516 12.4375C48.5859 12.7969 49.7578 13.3359 50.8672 14.0547H55.5312V21.1094H49.0625ZM64.8359 26.3828L64.9062 27.1094C65.0781 27.8125 65.3672 28.4297 65.7734 28.9609C66.1953 29.4922 66.6875 29.9375 67.25 30.2969C67.8125 30.6562 68.4375 30.9297 69.125 31.1172C69.8125 31.2891 70.5078 31.375 71.2109 31.375C71.9141 31.375 72.5781 31.3359 73.2031 31.2578C73.8438 31.1641 74.4609 31.0469 75.0547 30.9062C75.6484 30.75 76.2266 30.5781 76.7891 30.3906C77.3516 30.1875 77.9219 29.9766 78.5 29.7578L81.0781 34.5625C80.1875 35.1094 79.3672 35.5781 78.6172 35.9688C77.8828 36.3438 77.1406 36.6562 76.3906 36.9062C75.6406 37.1562 74.8438 37.3359 74 37.4453C73.1562 37.5703 72.1719 37.6328 71.0469 37.6328C68.9375 37.6328 67.0625 37.2891 65.4219 36.6016C63.7812 35.8984 62.3984 34.9531 61.2734 33.7656C60.1641 32.5781 59.3125 31.1875 58.7188 29.5938C58.1406 28 57.8516 26.3125 57.8516 24.5312C57.8516 22.75 58.1562 21.0781 58.7656 19.5156C59.3906 17.9531 60.2656 16.5938 61.3906 15.4375C62.5156 14.2656 63.8594 13.3438 65.4219 12.6719C66.9844 12 68.7188 11.6641 70.625 11.6641C72.5312 11.6641 74.2188 11.9844 75.6875 12.625C77.1719 13.25 78.4219 14.125 79.4375 15.25C80.4531 16.3594 81.2344 17.6719 81.7812 19.1875C82.3281 20.6875 82.625 22.3047 82.6719 24.0391C82.7188 24.4297 82.7422 24.8203 82.7422 25.2109C82.7578 25.5859 82.75 25.9766 82.7188 26.3828H64.8359ZM70.4375 17.5234C69.5625 17.5234 68.8125 17.6328 68.1875 17.8516C67.5781 18.0547 67.0625 18.3438 66.6406 18.7188C66.2188 19.0781 65.8828 19.4922 65.6328 19.9609C65.3828 20.4297 65.1875 20.9219 65.0469 21.4375H75.1953C75.0859 20.9062 74.9297 20.4062 74.7266 19.9375C74.5234 19.4688 74.2422 19.0547 73.8828 18.6953C73.5234 18.3359 73.0625 18.0547 72.5 17.8516C71.9531 17.6328 71.2656 17.5234 70.4375 17.5234ZM85.8359 0.53125H96.7812V30.5781H100.531V37H85.8359V30.5781H89.5859V6.95312H85.8359V0.53125ZM104.422 24.7656C104.422 23 104.742 21.3438 105.383 19.7969C106.023 18.25 106.914 16.8984 108.055 15.7422C109.195 14.5859 110.555 13.6719 112.133 13C113.711 12.3281 115.445 11.9922 117.336 11.9922C119.227 11.9922 120.961 12.3281 122.539 13C124.133 13.6719 125.5 14.5859 126.641 15.7422C127.781 16.8984 128.664 18.25 129.289 19.7969C129.93 21.3438 130.25 23 130.25 24.7656C130.25 26.5312 129.938 28.1953 129.312 29.7578C128.703 31.3047 127.828 32.6641 126.688 33.8359C125.562 34.9922 124.203 35.9062 122.609 36.5781C121.031 37.25 119.273 37.5859 117.336 37.5859C115.383 37.5859 113.609 37.25 112.016 36.5781C110.438 35.9062 109.086 34.9922 107.961 33.8359C106.836 32.6797 105.961 31.3281 105.336 29.7812C104.727 28.2188 104.422 26.5469 104.422 24.7656ZM111.43 24.7656C111.43 25.6875 111.586 26.5391 111.898 27.3203C112.211 28.0859 112.633 28.75 113.164 29.3125C113.711 29.875 114.336 30.3125 115.039 30.625C115.758 30.9375 116.523 31.0938 117.336 31.0938C118.164 31.0938 118.93 30.9453 119.633 30.6484C120.352 30.3359 120.969 29.8984 121.484 29.3359C122.016 28.7734 122.43 28.1094 122.727 27.3438C123.023 26.5625 123.172 25.7031 123.172 24.7656C123.172 23.7969 123.023 22.9219 122.727 22.1406C122.43 21.3594 122.016 20.6953 121.484 20.1484C120.969 19.6016 120.352 19.1875 119.633 18.9062C118.93 18.6094 118.164 18.4688 117.336 18.4844C116.523 18.4688 115.758 18.6094 115.039 18.9062C114.336 19.1875 113.711 19.6016 113.164 20.1484C112.633 20.6953 112.211 21.3594 111.898 22.1406C111.586 22.9219 111.43 23.7969 111.43 24.7656ZM151.836 35.7344C150.961 36.2344 150.086 36.5938 149.211 36.8125C148.336 37.0312 147.445 37.1406 146.539 37.1406C144.664 37.1406 142.938 36.8203 141.359 36.1797C139.781 35.5391 138.414 34.6562 137.258 33.5312C136.117 32.3906 135.227 31.0469 134.586 29.5C133.945 27.9531 133.625 26.2734 133.625 24.4609C133.625 22.7578 133.93 21.1562 134.539 19.6562C135.164 18.1406 136.031 16.8203 137.141 15.6953C138.25 14.5547 139.578 13.6562 141.125 13C142.672 12.3438 144.352 12.0078 146.164 11.9922C147.273 12.0078 148.289 12.125 149.211 12.3438C150.148 12.5625 151.023 12.8594 151.836 13.2344V12.7188H158.938V35.9922C158.938 38.0391 158.586 39.8047 157.883 41.2891C157.18 42.7891 156.234 44.0234 155.047 44.9922C153.875 45.9766 152.508 46.7031 150.945 47.1719C149.383 47.6562 147.742 47.8984 146.023 47.8984C143.898 47.8984 141.93 47.6094 140.117 47.0312C138.32 46.4531 136.719 45.6719 135.312 44.6875L138.242 39.4844C139.32 40.1719 140.492 40.7109 141.758 41.1016C143.023 41.5078 144.43 41.7109 145.977 41.7109C146.82 41.7109 147.594 41.6172 148.297 41.4297C149.016 41.2422 149.633 40.9219 150.148 40.4688C150.68 40.0312 151.094 39.4375 151.391 38.6875C151.688 37.9375 151.836 36.9922 151.836 35.8516V35.7344ZM146.773 30.6484C147.867 30.6484 148.852 30.375 149.727 29.8281C150.617 29.2656 151.32 28.5312 151.836 27.625L151.883 21.7188C151.352 20.7344 150.625 19.9531 149.703 19.375C148.781 18.7969 147.781 18.5 146.703 18.4844C145.938 18.5 145.188 18.6562 144.453 18.9531C143.719 19.2344 143.078 19.6406 142.531 20.1719C142 20.7031 141.578 21.3359 141.266 22.0703C140.953 22.7891 140.797 23.5938 140.797 24.4844C140.797 25.4219 140.953 26.2734 141.266 27.0391C141.578 27.8047 142 28.4531 142.531 28.9844C143.062 29.5156 143.688 29.9297 144.406 30.2266C145.141 30.5078 145.93 30.6484 146.773 30.6484Z" fill="white"/>
<path d="M15.8047 35.6875H17.3047V32.9729L15.0064 34.4175L15.8047 35.6875ZM14.3047 36.5781L14.9938 37.9105L15.0117 37.9012L15.0293 37.8915L14.3047 36.5781ZM12.9453 37.1406L12.5007 35.708L12.4784 35.715L12.4563 35.7226L12.9453 37.1406ZM11.5391 37.4688L11.3471 35.9811L11.3236 35.9841L11.3002 35.9879L11.5391 37.4688ZM6.03125 37L5.52797 38.4131L5.53953 38.4172L5.55115 38.4211L6.03125 37ZM3.125 35.3594L2.12155 36.4743L2.13324 36.4848L2.14515 36.4951L3.125 35.3594ZM1.32031 32.8984L-0.0513564 33.5056L-0.0475698 33.514L1.32031 32.8984ZM1.32031 26.6875L-0.0429318 26.0617L-0.0471946 26.071L-0.0513305 26.0804L1.32031 26.6875ZM3.19531 24.25L4.15121 25.406L4.15775 25.4006L4.16423 25.3951L3.19531 24.25ZM6.17188 22.6562L6.62905 24.0849L6.64059 24.0811L6.17188 22.6562ZM13.25 22.2578L13.045 23.7437L13.0591 23.7457L13.0733 23.7474L13.25 22.2578ZM15.8047 22.6797L15.4824 24.1447L17.3047 24.5456V22.6797H15.8047ZM15.4531 20.3594L14.1208 21.0485L14.1258 21.0581L14.1309 21.0677L15.4531 20.3594ZM14.4688 19.2578L13.6055 20.4845L13.621 20.4954L13.6367 20.5059L14.4688 19.2578ZM12.9453 18.625L12.5996 20.0846L12.6179 20.089L12.6363 20.0928L12.9453 18.625ZM7.10938 18.8594L7.478 20.3134L7.48506 20.3116L7.49211 20.3097L7.10938 18.8594ZM3.89844 20.1016L2.55404 20.7668L3.23825 22.1495L4.60119 21.4268L3.89844 20.1016ZM1.64844 15.5547L0.799674 14.3179L-0.272925 15.054L0.304036 16.22L1.64844 15.5547ZM6.64062 13.0469L6.1701 11.6226L6.16628 11.6239L6.64062 13.0469ZM16.3906 12.6953L16.0019 14.1441L16.0123 14.1469L16.0227 14.1495L16.3906 12.6953ZM19.7188 14.3359L18.7604 15.4899L18.7662 15.4947L18.7721 15.4995L19.7188 14.3359ZM21.875 17.2891L20.4935 17.8735L20.4967 17.881L20.5 17.8884L21.875 17.2891ZM22.6719 30.5781H21.1719V32.0781H22.6719V30.5781ZM25.9297 30.5781H27.4297V29.0781H25.9297V30.5781ZM25.9297 37V38.5H27.4297V37H25.9297ZM15.8047 37H14.3047V38.5H15.8047V37ZM15.8047 30.2031L16.7452 31.3716L17.3047 30.9213V30.2031H15.8047ZM15.8047 27.1094H17.3047V25.6094H15.8047V27.1094ZM8.1875 27.7422L7.30926 26.5262L7.29263 26.5382L7.27632 26.5507L8.1875 27.7422ZM7.53125 28.4922L6.23311 27.7406L6.21796 27.7668L6.20387 27.7936L7.53125 28.4922ZM8.07031 31.3281L7.0433 32.4214L7.05143 32.429L7.05968 32.4366L8.07031 31.3281ZM15.0064 34.4175C14.4781 34.7497 14.003 35.0314 13.5801 35.2648L15.0293 37.8915C15.5126 37.6249 16.0376 37.3128 16.6029 36.9575L15.0064 34.4175ZM13.6156 35.2458C13.235 35.4426 12.8635 35.5954 12.5007 35.708L13.3899 38.5732C13.9334 38.4046 14.4681 38.1824 14.9938 37.9105L13.6156 35.2458ZM12.4563 35.7226C12.1014 35.845 11.7323 35.9314 11.3471 35.9811L11.731 38.9564C12.3146 38.8811 12.883 38.7488 13.4343 38.5587L12.4563 35.7226ZM11.3002 35.9879C10.9073 36.0513 10.4571 36.0859 9.94531 36.0859V39.0859C10.5897 39.0859 11.2021 39.0425 11.7779 38.9496L11.3002 35.9879ZM9.94531 36.0859C8.6252 36.0859 7.48666 35.9084 6.51135 35.5789L5.55115 38.4211C6.88834 38.8728 8.35918 39.0859 9.94531 39.0859V36.0859ZM6.53453 35.5869C5.54258 35.2337 4.74192 34.7733 4.10485 34.2236L2.14515 36.4951C3.10183 37.3205 4.23867 37.9538 5.52797 38.4131L6.53453 35.5869ZM4.12845 34.2444C3.49847 33.6775 3.02264 33.0261 2.68819 32.2829L-0.0475698 33.514C0.461734 34.6458 1.18903 35.635 2.12155 36.4743L4.12845 34.2444ZM2.69196 32.2913C2.36008 31.5415 2.1875 30.7186 2.1875 29.8047H-0.8125C-0.8125 31.1095 -0.563208 32.3491 -0.0513305 33.5056L2.69196 32.2913ZM2.1875 29.8047C2.1875 28.872 2.36126 28.0417 2.69196 27.2946L-0.0513305 26.0804C-0.564387 27.2395 -0.8125 28.4874 -0.8125 29.8047H2.1875ZM2.68356 27.3133C3.02638 26.5664 3.5117 25.9348 4.15121 25.406L2.23942 23.094C1.25393 23.909 0.489247 24.9024 -0.0429318 26.0617L2.68356 27.3133ZM4.16423 25.3951C4.80482 24.853 5.61575 24.4091 6.62904 24.0849L5.71471 21.2276C4.38425 21.6534 3.21081 22.272 2.2264 23.1049L4.16423 25.3951ZM6.64059 24.0811C7.64865 23.7495 8.83752 23.5703 10.2266 23.5703V20.5703C8.58436 20.5703 7.0701 20.7817 5.70316 21.2314L6.64059 24.0811ZM10.2266 23.5703C11.2812 23.5703 12.2192 23.6298 13.045 23.7437L13.455 20.7719C12.4683 20.6358 11.3906 20.5703 10.2266 20.5703V23.5703ZM13.0733 23.7474C13.9538 23.8518 14.7561 23.9849 15.4824 24.1447L16.127 21.2147C15.2907 21.0307 14.3899 20.8825 13.4267 20.7683L13.0733 23.7474ZM17.3047 22.6797V21.9297H14.3047V22.6797H17.3047ZM17.3047 21.9297C17.3047 21.1288 17.1501 20.3506 16.7753 19.651L14.1309 21.0677C14.2249 21.2431 14.3047 21.5119 14.3047 21.9297H17.3047ZM16.7855 19.6702C16.4351 18.9929 15.9354 18.4328 15.3008 18.0097L13.6367 20.5059C13.8458 20.6453 14.0024 20.8196 14.1208 21.0485L16.7855 19.6702ZM15.332 18.0311C14.717 17.5983 14.0126 17.3168 13.2543 17.1572L12.6363 20.0928C13.0655 20.1832 13.3768 20.3236 13.6055 20.4845L15.332 18.0311ZM13.291 17.1654C12.5684 16.9942 11.8023 16.9141 11 16.9141V19.9141C11.604 19.9141 12.1348 19.9745 12.5996 20.0846L13.291 17.1654ZM11 16.9141C9.43416 16.9141 8.00418 17.0719 6.72664 17.409L7.49211 20.3097C8.46457 20.0531 9.62834 19.9141 11 19.9141V16.9141ZM6.74075 17.4054C5.51295 17.7166 4.33065 18.1745 3.19568 18.7764L4.60119 21.4268C5.52873 20.9349 6.48705 20.5646 7.478 20.3134L6.74075 17.4054ZM5.24284 19.4363L2.99284 14.8894L0.304036 16.22L2.55404 20.7668L5.24284 19.4363ZM2.4972 16.7915C3.98207 15.7724 5.52089 15.0013 7.11497 14.4699L6.16628 11.6239C4.29161 12.2487 2.5023 13.1494 0.799674 14.3179L2.4972 16.7915ZM7.11115 14.4712C8.7005 13.9461 10.3925 13.6797 12.1953 13.6797V10.6797C10.0919 10.6797 8.08075 10.9914 6.1701 11.6226L7.11115 14.4712ZM12.1953 13.6797C13.598 13.6797 14.864 13.8388 16.0019 14.1441L16.7793 11.2465C15.3548 10.8644 13.8239 10.6797 12.1953 10.6797V13.6797ZM16.0227 14.1495C17.1283 14.4292 18.0296 14.8829 18.7604 15.4899L20.6771 13.182C19.5642 12.2577 18.2467 11.6177 16.7585 11.2411L16.0227 14.1495ZM18.7721 15.4995C19.4831 16.078 20.0624 16.8544 20.4935 17.8735L23.2565 16.7046C22.6564 15.2862 21.7981 14.0939 20.6654 13.1724L18.7721 15.4995ZM20.5 17.8884C20.9271 18.8685 21.1719 20.1363 21.1719 21.7422H24.1719C24.1719 19.848 23.8854 18.1472 23.25 16.6897L20.5 17.8884ZM21.1719 21.7422V30.5781H24.1719V21.7422H21.1719ZM22.6719 32.0781H25.9297V29.0781H22.6719V32.0781ZM24.4297 30.5781V37H27.4297V30.5781H24.4297ZM25.9297 35.5H15.8047V38.5H25.9297V35.5ZM17.3047 37V35.6875H14.3047V37H17.3047ZM10.4609 33.5547C11.7337 33.5547 12.9325 33.3481 14.0373 32.91L12.9314 30.1213C12.2238 30.4019 11.4069 30.5547 10.4609 30.5547V33.5547ZM14.0373 32.91C15.0582 32.5052 15.9681 31.9971 16.7452 31.3716L14.8642 29.0346C14.3601 29.4404 13.7231 29.8073 12.9314 30.1213L14.0373 32.91ZM17.3047 30.2031V27.1094H14.3047V30.2031H17.3047ZM15.8047 25.6094H10.1797V28.6094H15.8047V25.6094ZM10.1797 25.6094C9.66539 25.6094 9.16045 25.6881 8.67019 25.844L9.57981 28.7028C9.77705 28.6401 9.97524 28.6094 10.1797 28.6094V25.6094ZM8.67019 25.844C8.18096 25.9997 7.72453 26.2263 7.30926 26.5262L9.06574 28.9582C9.21297 28.8519 9.38154 28.7659 9.57981 28.7028L8.67019 25.844ZM7.27632 26.5507C6.84995 26.8767 6.50118 27.2776 6.23311 27.7406L8.82939 29.2437C8.90507 29.113 8.9938 29.0139 9.09868 28.9337L7.27632 26.5507ZM6.20387 27.7936C5.91693 28.3388 5.79688 28.9295 5.79688 29.5234H8.79688C8.79688 29.3361 8.83307 29.2394 8.85863 29.1908L6.20387 27.7936ZM5.79688 29.5234C5.79688 30.6488 6.22045 31.6484 7.0433 32.4214L9.09733 30.2349C8.88893 30.0391 8.79688 29.8356 8.79688 29.5234H5.79688ZM7.05968 32.4366C7.97397 33.2702 9.19976 33.5547 10.4609 33.5547V30.5547C9.59712 30.5547 9.22916 30.3548 9.08094 30.2197L7.05968 32.4366ZM49.0625 21.1094L47.8891 22.0438L48.3395 22.6094H49.0625V21.1094ZM46.8125 19.2109L46.1118 20.5372L46.1217 20.5424L46.1316 20.5475L46.8125 19.2109ZM43.8828 18.6484L43.7796 20.1449L43.8728 20.1513L43.966 20.1461L43.8828 18.6484ZM41.3984 19.0234L40.8215 17.6388L40.8111 17.6432L41.3984 19.0234ZM39.4766 20.3359L38.4011 19.2903L38.3935 19.2981L38.386 19.306L39.4766 20.3359ZM38.2344 22.3516L39.6329 22.8939L39.6366 22.8844L38.2344 22.3516ZM39.5234 29.3828L38.4329 30.4127L38.4476 30.4283L38.4628 30.4435L39.5234 29.3828ZM41.4453 30.6719L40.858 32.0521L40.8684 32.0565L41.4453 30.6719ZM43.8828 31.2344L43.7759 32.7306L43.893 32.7389L44.01 32.729L43.8828 31.2344ZM45.875 30.7891L46.4257 32.1843L46.4351 32.1806L46.4443 32.1768L45.875 30.7891ZM47.4922 29.8516L48.4292 31.0229L48.4409 31.0135L48.4525 31.0039L47.4922 29.8516ZM48.6875 28.5625L47.4642 27.6944L47.4587 27.7023L48.6875 28.5625ZM49.4844 27.2031L49.8839 25.7573L48.6385 25.4131L48.1137 26.5939L49.4844 27.2031ZM55.9297 28.9844L57.3729 29.3933L57.7844 27.9407L56.3293 27.5386L55.9297 28.9844ZM54.5469 31.9141L53.287 31.1L53.2826 31.1069L53.2782 31.1138L54.5469 31.9141ZM52.0156 34.7031L52.9548 35.8727L52.9569 35.871L52.0156 34.7031ZM48.3125 36.7656L47.7791 35.3636L47.774 35.3656L48.3125 36.7656ZM38.3047 36.5781L37.7006 37.9511L37.7121 37.9561L38.3047 36.5781ZM31.625 29.6641L30.2303 30.2164L30.2352 30.2283L31.625 29.6641ZM31.6484 19.5859L30.2675 19.0001L30.2647 19.007L31.6484 19.5859ZM34.3438 15.5547L35.4044 16.6154L35.4116 16.6081L34.3438 15.5547ZM38.3984 12.8594L37.8342 11.4695L37.8294 11.4715L38.3984 12.8594ZM43.5312 11.9922L43.4804 13.4913L43.5415 13.4934L43.6026 13.4905L43.5312 11.9922ZM50.8672 14.0547L50.0516 15.3136L50.4237 15.5547H50.8672V14.0547ZM55.5312 14.0547H57.0312V12.5547H55.5312V14.0547ZM55.5312 21.1094V22.6094H57.0312V21.1094H55.5312ZM50.2359 20.175C49.4518 19.1903 48.5408 18.408 47.4934 17.8744L46.1316 20.5475C46.7404 20.8576 47.3295 21.341 47.8891 22.0438L50.2359 20.175ZM47.5132 17.8846C46.3994 17.2962 45.1412 17.0762 43.7996 17.1507L43.966 20.1461C44.8744 20.0957 45.5693 20.2506 46.1118 20.5372L47.5132 17.8846ZM43.986 17.152C42.8752 17.0754 41.8107 17.2267 40.8215 17.6388L41.9754 20.4081C42.4861 20.1952 43.078 20.0965 43.7796 20.1449L43.986 17.152ZM40.8111 17.6432C39.8967 18.0323 39.0893 18.5825 38.4011 19.2903L40.5521 21.3816C40.9576 20.9644 41.4315 20.6395 41.9858 20.4037L40.8111 17.6432ZM38.386 19.306C37.7086 20.0233 37.1935 20.8678 36.8322 21.8187L39.6366 22.8844C39.869 22.2728 40.182 21.7736 40.5671 21.3659L38.386 19.306ZM36.8358 21.8093C36.461 22.7759 36.2891 23.8316 36.2891 24.9531H39.2891C39.2891 24.1372 39.414 23.4585 39.6329 22.8939L36.8358 21.8093ZM36.2891 24.9531C36.2891 25.9991 36.4802 27.0048 36.869 27.9575L39.6466 26.8238C39.4104 26.2452 39.2891 25.6259 39.2891 24.9531H36.2891ZM36.869 27.9575C37.2467 28.8827 37.766 29.7066 38.4329 30.4127L40.614 28.3529C40.2184 27.934 39.894 27.4298 39.6466 26.8238L36.869 27.9575ZM38.4628 30.4435C39.1499 31.1306 39.9526 31.6668 40.858 32.0521L42.0326 29.2916C41.4693 29.0519 40.9908 28.7288 40.5841 28.3222L38.4628 30.4435ZM40.8684 32.0565C41.7795 32.4361 42.7521 32.6574 43.7759 32.7306L43.9897 29.7382C43.2635 29.6863 42.6111 29.5326 42.0222 29.2873L40.8684 32.0565ZM44.01 32.729C44.8677 32.656 45.6773 32.4797 46.4257 32.1843L45.3243 29.3938C44.8852 29.5672 44.3667 29.6878 43.7556 29.7398L44.01 32.729ZM46.4443 32.1768C47.1732 31.8778 47.8386 31.4954 48.4292 31.0229L46.5551 28.6803C46.2083 28.9577 45.7955 29.2003 45.3057 29.4013L46.4443 32.1768ZM48.4525 31.0039C49.0165 30.5338 49.5072 30.0073 49.9163 29.4227L47.4587 27.7023C47.2116 28.0552 46.9053 28.388 46.5319 28.6992L48.4525 31.0039ZM49.9108 29.4306C50.2967 28.8868 50.6176 28.3467 50.8551 27.8123L48.1137 26.5939C47.9762 26.9033 47.7658 27.2694 47.4642 27.6944L49.9108 29.4306ZM49.0848 28.6489L55.5301 30.4302L56.3293 27.5386L49.8839 25.7573L49.0848 28.6489ZM54.4865 28.5755C54.2699 29.3399 53.881 30.1807 53.287 31.1L55.8068 32.7281C56.5253 31.6162 57.0582 30.5039 57.3729 29.3933L54.4865 28.5755ZM53.2782 31.1138C52.7356 31.974 52.0078 32.7829 51.0743 33.5352L52.9569 35.871C54.1172 34.9359 55.0769 33.8853 55.8156 32.7143L53.2782 31.1138ZM51.0764 33.5336C50.1855 34.249 49.0934 34.8637 47.7791 35.3637L48.8459 38.1676C50.4066 37.5738 51.7832 36.8135 52.9548 35.8727L51.0764 33.5336ZM47.774 35.3656C46.5546 35.8346 45.1174 36.0859 43.4375 36.0859V39.0859C45.4138 39.0859 47.2267 38.7904 48.851 38.1656L47.774 35.3656ZM43.4375 36.0859C41.7627 36.0859 40.2557 35.7843 38.8972 35.2001L37.7121 37.9561C39.4786 38.7157 41.3935 39.0859 43.4375 39.0859V36.0859ZM38.9088 35.2052C37.5167 34.5926 36.3377 33.7734 35.3555 32.7503L33.1914 34.8279C34.4591 36.1485 35.9677 37.1886 37.7006 37.9511L38.9088 35.2052ZM35.3555 32.7503C34.3686 31.7222 33.5874 30.5104 33.0148 29.0999L30.2352 30.2283C30.9438 31.974 31.9283 33.5121 33.1914 34.8279L35.3555 32.7503ZM33.0196 29.1117C32.4689 27.7211 32.1875 26.2145 32.1875 24.5781H29.1875C29.1875 26.5668 29.5311 28.4508 30.2304 30.2164L33.0196 29.1117ZM32.1875 24.5781C32.1875 22.9635 32.4744 21.4981 33.0322 20.1649L30.2647 19.007C29.5412 20.7363 29.1875 22.599 29.1875 24.5781H32.1875ZM33.0293 20.1718C33.6135 18.7947 34.4057 17.6141 35.4044 16.6153L33.2831 14.494C32.0006 15.7766 30.9959 17.2834 30.2676 19.0001L33.0293 20.1718ZM35.4116 16.6081C36.4045 15.6016 37.5845 14.8143 38.9675 14.2473L37.8294 11.4715C36.0874 12.1857 34.5642 13.1953 33.2759 14.5013L35.4116 16.6081ZM38.9626 14.2492C40.3299 13.6942 41.8294 13.4354 43.4804 13.4913L43.5821 10.493C41.5456 10.424 39.6232 10.7433 37.8342 11.4695L38.9626 14.2492ZM43.6026 13.4905C44.7532 13.4357 45.8606 13.5657 46.9323 13.8777L47.7709 10.9973C46.3737 10.5905 44.9343 10.4237 43.4599 10.4939L43.6026 13.4905ZM46.9323 13.8777C48.0225 14.1951 49.0613 14.672 50.0516 15.3136L51.6828 12.7958C50.4543 11.9999 49.1494 11.3986 47.7709 10.9973L46.9323 13.8777ZM50.8672 15.5547H55.5312V12.5547H50.8672V15.5547ZM54.0312 14.0547V21.1094H57.0312V14.0547H54.0312ZM55.5312 19.6094H49.0625V22.6094H55.5312V19.6094ZM64.8359 26.3828V24.8828H63.1838L63.3429 26.5273L64.8359 26.3828ZM64.9062 27.1094L63.4132 27.2539L63.4236 27.361L63.4492 27.4656L64.9062 27.1094ZM65.7734 28.9609L64.5819 29.8721L64.5902 29.883L64.5988 29.8938L65.7734 28.9609ZM69.125 31.1172L68.7303 32.5643L68.7457 32.5685L68.7612 32.5724L69.125 31.1172ZM73.2031 31.2578L73.3892 32.7462L73.4048 32.7443L73.4203 32.742L73.2031 31.2578ZM75.0547 30.9062L75.4004 32.3659L75.4185 32.3616L75.4364 32.3569L75.0547 30.9062ZM76.7891 30.3906L77.2634 31.8136L77.281 31.8078L77.2985 31.8015L76.7891 30.3906ZM78.5 29.7578L79.8217 29.0486L79.1997 27.8893L77.9692 28.3549L78.5 29.7578ZM81.0781 34.5625L81.863 35.8408L83.069 35.1003L82.3999 33.8533L81.0781 34.5625ZM78.6172 35.9688L79.2994 37.3047L79.3101 37.2991L78.6172 35.9688ZM74 37.4453L73.8072 35.9578L73.7937 35.9595L73.7802 35.9615L74 37.4453ZM65.4219 36.6016L64.831 37.9803L64.8421 37.985L65.4219 36.6016ZM61.2734 33.7656L60.1773 34.7896L60.1845 34.7972L61.2734 33.7656ZM58.7188 29.5938L57.3086 30.1053L57.3131 30.1174L58.7188 29.5938ZM58.7656 19.5156L57.3729 18.9585L57.3681 18.9706L58.7656 19.5156ZM61.3906 15.4375L62.4657 16.4836L62.4727 16.4763L61.3906 15.4375ZM75.6875 12.625L75.0878 13.9999L75.0966 14.0037L75.1054 14.0075L75.6875 12.625ZM79.4375 15.25L78.3241 16.2552L78.3311 16.2629L79.4375 15.25ZM81.7812 19.1875L80.3703 19.6966L80.372 19.7013L81.7812 19.1875ZM82.6719 24.0391L81.1724 24.0796L81.1743 24.1489L81.1826 24.2178L82.6719 24.0391ZM82.7422 25.2109H81.2422V25.2422L81.2435 25.2734L82.7422 25.2109ZM82.7188 26.3828V27.8828H84.1078L84.2143 26.4979L82.7188 26.3828ZM68.1875 17.8516L68.6618 19.2746L68.6725 19.271L68.683 19.2674L68.1875 17.8516ZM66.6406 18.7188L67.6133 19.8606L67.6254 19.8504L67.6372 19.8399L66.6406 18.7188ZM65.0469 21.4375L63.5997 21.0428L63.083 22.9375H65.0469V21.4375ZM75.1953 21.4375V22.9375H77.0356L76.6645 21.135L75.1953 21.4375ZM72.5 17.8516L71.9429 19.2443L71.9666 19.2537L71.9905 19.2624L72.5 17.8516ZM63.3429 26.5273L63.4132 27.2539L66.3993 26.9649L66.329 26.2383L63.3429 26.5273ZM63.4492 27.4656C63.6661 28.3533 64.0397 29.163 64.5819 29.8721L66.965 28.0498C66.6947 27.6964 66.4901 27.2717 66.3633 26.7532L63.4492 27.4656ZM64.5988 29.8938C65.1221 30.5528 65.7378 31.1107 66.4424 31.5609L68.0576 29.0328C67.6372 28.7643 67.2685 28.4316 66.9481 28.0281L64.5988 29.8938ZM66.4424 31.5609C67.1409 32.0072 67.9066 32.3397 68.7303 32.5643L69.5197 29.67C68.9684 29.5197 68.4841 29.3053 68.0576 29.0328L66.4424 31.5609ZM68.7612 32.5724C69.5667 32.7738 70.3842 32.875 71.2109 32.875V29.875C70.6314 29.875 70.0583 29.8043 69.4888 29.662L68.7612 32.5724ZM71.2109 32.875C71.9692 32.875 72.6958 32.8329 73.3892 32.7462L73.0171 29.7694C72.4604 29.839 71.8589 29.875 71.2109 29.875V32.875ZM73.4203 32.742C74.1015 32.6423 74.7617 32.5171 75.4004 32.3659L74.709 29.4466C74.1602 29.5766 73.586 29.6858 72.9859 29.7736L73.4203 32.742ZM75.4364 32.3569C76.0602 32.1927 76.6693 32.0117 77.2634 31.8136L76.3147 28.9676C75.7838 29.1446 75.2366 29.3073 74.6729 29.4556L75.4364 32.3569ZM77.2985 31.8015C77.8684 31.5957 78.4458 31.3821 79.0308 31.1607L77.9692 28.3549C77.3979 28.571 76.8347 28.7793 76.2796 28.9798L77.2985 31.8015ZM77.1783 30.467L79.7564 35.2717L82.3999 33.8533L79.8217 29.0486L77.1783 30.467ZM80.2932 33.2842C79.426 33.8168 78.6368 34.2673 77.9243 34.6384L79.3101 37.2991C80.0976 36.889 80.949 36.402 81.863 35.8408L80.2932 33.2842ZM77.935 34.6328C77.2648 34.9751 76.5919 35.258 75.9163 35.4832L76.865 38.3293C77.6893 38.0545 78.5008 37.7124 79.2994 37.3047L77.935 34.6328ZM75.9163 35.4832C75.2645 35.7005 74.5624 35.8599 73.8072 35.9578L74.1928 38.9329C75.1251 38.812 76.0168 38.612 76.865 38.3293L75.9163 35.4832ZM73.7802 35.9615C73.0279 36.073 72.12 36.1328 71.0469 36.1328V39.1328C72.2237 39.1328 73.2846 39.0677 74.2198 38.9291L73.7802 35.9615ZM71.0469 36.1328C69.1002 36.1328 67.4278 35.8158 66.0016 35.2181L64.8421 37.985C66.6972 38.7623 68.7748 39.1328 71.0469 39.1328V36.1328ZM66.0128 35.2228C64.5428 34.5929 63.3344 33.76 62.3624 32.734L60.1845 34.7972C61.4625 36.1462 63.0197 37.204 64.831 37.9803L66.0128 35.2228ZM62.3695 32.7416C61.4016 31.7055 60.6523 30.4871 60.1244 29.0701L57.3131 30.1174C57.9727 31.8879 58.9265 33.4507 60.1773 34.7896L62.3695 32.7416ZM60.1288 29.0822C59.6132 27.6607 59.3516 26.147 59.3516 24.5312H56.3516C56.3516 26.478 56.6681 28.3393 57.3087 30.1053L60.1288 29.0822ZM59.3516 24.5312C59.3516 22.9248 59.6256 21.4388 60.1631 20.0606L57.3681 18.9706C56.6869 20.7174 56.3516 22.5752 56.3516 24.5312H59.3516ZM60.1583 20.0727C60.7137 18.6844 61.4834 17.4931 62.4657 16.4835L60.3155 14.3915C59.0478 15.6944 58.0676 17.2219 57.3729 18.9585L60.1583 20.0727ZM62.4727 16.4763C63.4523 15.4558 64.6273 14.6463 66.0144 14.0499L64.8293 11.2939C63.0914 12.0412 61.5789 13.0754 60.3085 14.3987L62.4727 16.4763ZM66.0144 14.0499C67.3684 13.4677 68.8979 13.1641 70.625 13.1641V10.1641C68.5396 10.1641 66.6004 10.5323 64.8293 11.2939L66.0144 14.0499ZM70.625 13.1641C72.3634 13.1641 73.8406 13.4559 75.0878 13.9999L76.2872 11.2501C74.5969 10.5128 72.6991 10.1641 70.625 10.1641V13.1641ZM75.1054 14.0075C76.4001 14.5526 77.4649 15.3035 78.3241 16.2552L80.5509 14.2448C79.3788 12.9465 77.9436 11.9474 76.2696 11.2425L75.1054 14.0075ZM78.3311 16.2629C79.2036 17.2159 79.8858 18.3539 80.3703 19.6966L83.1922 18.6784C82.5829 16.9898 81.7026 15.5028 80.5439 14.2371L78.3311 16.2629ZM80.372 19.7013C80.8589 21.0368 81.1295 22.4928 81.1724 24.0796L84.1713 23.9985C84.1205 22.1166 83.7973 20.3382 83.1905 18.6737L80.372 19.7013ZM81.1826 24.2178C81.2224 24.5495 81.2422 24.8805 81.2422 25.2109H84.2422C84.2422 24.7602 84.2151 24.3099 84.1612 23.8603L81.1826 24.2178ZM81.2435 25.2734C81.2564 25.5844 81.2503 25.9156 81.2232 26.2678L84.2143 26.4979C84.2497 26.0375 84.2592 25.5874 84.2409 25.1485L81.2435 25.2734ZM82.7188 24.8828H64.8359V27.8828H82.7188V24.8828ZM70.4375 16.0234C69.4448 16.0234 68.5182 16.1466 67.692 16.4358L68.683 19.2674C69.1068 19.119 69.6802 19.0234 70.4375 19.0234V16.0234ZM67.7132 16.4285C66.9376 16.6871 66.2373 17.0703 65.6441 17.5976L67.6372 19.8399C67.8877 19.6172 68.2187 19.4223 68.6618 19.2746L67.7132 16.4285ZM65.6679 17.5769C65.1091 18.0529 64.6516 18.6131 64.3093 19.2551L66.9563 20.6668C67.114 20.3713 67.3284 20.1033 67.6133 19.8606L65.6679 17.5769ZM64.3093 19.2551C64.0063 19.8232 63.7696 20.4198 63.5997 21.0428L66.494 21.8322C66.6054 21.4239 66.7594 21.0362 66.9563 20.6668L64.3093 19.2551ZM65.0469 22.9375H75.1953V19.9375H65.0469V22.9375ZM76.6645 21.135C76.5356 20.509 76.3494 19.91 76.1029 19.3411L73.3502 20.5339C73.51 20.9025 73.6363 21.3035 73.7261 21.74L76.6645 21.135ZM76.1029 19.3411C75.8251 18.7 75.4371 18.1282 74.9435 17.6347L72.8222 19.756C73.0473 19.9811 73.2218 20.2375 73.3502 20.5339L76.1029 19.3411ZM74.9435 17.6347C74.4031 17.0943 73.7429 16.7056 73.0095 16.4407L71.9905 19.2624C72.3821 19.4038 72.6437 19.5776 72.8222 19.756L74.9435 17.6347ZM73.0571 16.4588C72.2768 16.1467 71.3847 16.0234 70.4375 16.0234V19.0234C71.1465 19.0234 71.6295 19.1189 71.9429 19.2443L73.0571 16.4588ZM85.8359 0.53125V-0.96875H84.3359V0.53125H85.8359ZM96.7812 0.53125H98.2812V-0.96875H96.7812V0.53125ZM96.7812 30.5781H95.2812V32.0781H96.7812V30.5781ZM100.531 30.5781H102.031V29.0781H100.531V30.5781ZM100.531 37V38.5H102.031V37H100.531ZM85.8359 37H84.3359V38.5H85.8359V37ZM85.8359 30.5781V29.0781H84.3359V30.5781H85.8359ZM89.5859 30.5781V32.0781H91.0859V30.5781H89.5859ZM89.5859 6.95312H91.0859V5.45312H89.5859V6.95312ZM85.8359 6.95312H84.3359V8.45312H85.8359V6.95312ZM85.8359 2.03125H96.7812V-0.96875H85.8359V2.03125ZM95.2812 0.53125V30.5781H98.2812V0.53125H95.2812ZM96.7812 32.0781H100.531V29.0781H96.7812V32.0781ZM99.0312 30.5781V37H102.031V30.5781H99.0312ZM100.531 35.5H85.8359V38.5H100.531V35.5ZM87.3359 37V30.5781H84.3359V37H87.3359ZM85.8359 32.0781H89.5859V29.0781H85.8359V32.0781ZM91.0859 30.5781V6.95312H88.0859V30.5781H91.0859ZM89.5859 5.45312H85.8359V8.45312H89.5859V5.45312ZM87.3359 6.95312V0.53125H84.3359V6.95312H87.3359ZM122.539 13L121.951 14.3801L121.956 14.3822L122.539 13ZM129.289 19.7969L127.898 20.3588L127.903 20.3708L129.289 19.7969ZM129.312 29.7578L127.92 29.2007L127.917 29.208L129.312 29.7578ZM126.688 33.8359L125.613 32.7897L125.612 32.7899L126.688 33.8359ZM122.609 36.5781L122.027 35.1959L122.022 35.198L122.609 36.5781ZM112.016 36.5781L111.428 37.9583L111.433 37.9603L112.016 36.5781ZM105.336 29.7812L103.938 30.3263L103.942 30.3347L103.945 30.3432L105.336 29.7812ZM111.898 27.3203L110.506 27.8774L110.51 27.8872L111.898 27.3203ZM113.164 29.3125L112.074 30.3424L112.081 30.3503L112.089 30.3581L113.164 29.3125ZM115.039 30.625L114.43 31.9958L114.441 32.0006L115.039 30.625ZM119.633 30.6484L120.216 32.0303L120.224 32.0272L120.231 32.024L119.633 30.6484ZM121.484 29.3359L120.394 28.306L120.386 28.3141L120.379 28.3224L121.484 29.3359ZM122.727 27.3438L124.125 27.8861L124.129 27.8766L122.727 27.3438ZM121.484 20.1484L120.393 21.1775L120.401 21.1856L120.408 21.1936L121.484 20.1484ZM119.633 18.9062L119.049 20.2881L119.068 20.2959L119.086 20.3031L119.633 18.9062ZM117.336 18.4844L117.307 19.9841L117.336 19.9846L117.364 19.9841L117.336 18.4844ZM115.039 18.9062L115.596 20.299L115.604 20.2958L115.612 20.2926L115.039 18.9062ZM113.164 20.1484L112.103 19.0878L112.096 19.0955L112.088 19.1033L113.164 20.1484ZM105.922 24.7656C105.922 23.186 106.207 21.7259 106.769 20.3708L103.997 19.2229C103.277 20.9616 102.922 22.814 102.922 24.7656H105.922ZM106.769 20.3708C107.338 18.9972 108.122 17.8098 109.123 16.7956L106.987 14.6888C105.706 15.9871 104.709 17.5028 103.997 19.2229L106.769 20.3708ZM109.123 16.7956C110.118 15.7862 111.312 14.9798 112.72 14.3801L111.545 11.6199C109.797 12.364 108.272 13.3857 106.987 14.6888L109.123 16.7956ZM112.72 14.3801C114.095 13.7951 115.626 13.4922 117.336 13.4922V10.4922C115.264 10.4922 113.327 10.8612 111.545 11.6199L112.72 14.3801ZM117.336 13.4922C119.045 13.4922 120.577 13.7951 121.951 14.3801L123.127 11.6199C121.345 10.8612 119.408 10.4922 117.336 10.4922V13.4922ZM121.956 14.3822C123.38 14.9825 124.58 15.7887 125.573 16.7956L127.708 14.6888C126.42 13.3831 124.885 12.3613 123.122 11.6178L121.956 14.3822ZM125.573 16.7956C126.571 17.8071 127.345 18.9904 127.898 20.3588L130.68 19.2349C129.983 17.5096 128.992 15.9898 127.708 14.6888L125.573 16.7956ZM127.903 20.3708C128.464 21.7259 128.75 23.186 128.75 24.7656H131.75C131.75 22.814 131.395 20.9616 130.675 19.2229L127.903 20.3708ZM128.75 24.7656C128.75 26.3499 128.47 27.824 127.92 29.2007L130.705 30.3149C131.405 28.5666 131.75 26.7126 131.75 24.7656H128.75ZM127.917 29.208C127.379 30.573 126.612 31.7628 125.613 32.7897L127.762 34.8822C129.044 33.5653 130.027 32.0364 130.708 30.3076L127.917 29.208ZM125.612 32.7899C124.637 33.7921 123.449 34.5963 122.027 35.1959L123.192 37.9603C124.957 37.2162 126.488 36.1922 127.763 34.882L125.612 32.7899ZM122.022 35.198C120.652 35.7811 119.098 36.0859 117.336 36.0859V39.0859C119.449 39.0859 121.41 38.7189 123.197 37.9583L122.022 35.198ZM117.336 36.0859C115.557 36.0859 113.985 35.7806 112.598 35.1959L111.433 37.9603C113.233 38.7194 115.208 39.0859 117.336 39.0859V36.0859ZM112.603 35.198C111.196 34.5991 110.014 33.7947 109.036 32.7899L106.886 34.882C108.158 36.1897 109.679 37.2134 111.428 37.9583L112.603 35.198ZM109.036 32.7899C108.051 31.7778 107.281 30.5922 106.727 29.2193L103.945 30.3432C104.64 32.0641 105.621 33.5816 106.886 34.882L109.036 32.7899ZM106.733 29.2362C106.196 27.858 105.922 26.3721 105.922 24.7656H102.922C102.922 26.7216 103.257 28.5795 103.938 30.3263L106.733 29.2362ZM109.93 24.7656C109.93 25.86 110.116 26.9027 110.506 27.8774L113.291 26.7632C113.056 26.1754 112.93 25.515 112.93 24.7656H109.93ZM110.51 27.8872C110.887 28.8123 111.407 29.6363 112.074 30.3424L114.255 28.2826C113.859 27.8637 113.535 27.3595 113.287 26.7535L110.51 27.8872ZM112.089 30.3581C112.766 31.055 113.549 31.604 114.43 31.9957L115.648 29.2543C115.123 29.021 114.656 28.695 114.24 28.2669L112.089 30.3581ZM114.441 32.0006C115.355 32.3982 116.325 32.5938 117.336 32.5938V29.5938C116.722 29.5938 116.16 29.4768 115.637 29.2494L114.441 32.0006ZM117.336 32.5938C118.347 32.5938 119.313 32.4116 120.216 32.0303L119.049 29.2666C118.546 29.4791 117.981 29.5938 117.336 29.5938V32.5938ZM120.231 32.024C121.137 31.6301 121.929 31.0712 122.59 30.3495L120.379 28.3224C120.009 28.7257 119.566 29.0418 119.035 29.2728L120.231 32.024ZM122.575 30.3659C123.247 29.6538 123.762 28.8214 124.125 27.886L121.328 26.8015C121.097 27.3974 120.784 27.8931 120.394 28.306L122.575 30.3659ZM124.129 27.8766C124.498 26.9057 124.672 25.8632 124.672 24.7656H121.672C121.672 25.5431 121.549 26.2193 121.324 26.8109L124.129 27.8766ZM124.672 24.7656C124.672 23.6433 124.5 22.584 124.129 21.6078L121.324 22.6735C121.547 23.2597 121.672 23.9504 121.672 24.7656H124.672ZM124.129 21.6078C123.766 20.6538 123.247 19.8105 122.56 19.1033L120.408 21.1936C120.784 21.5802 121.093 22.0649 121.324 22.6735L124.129 21.6078ZM122.576 19.1194C121.904 18.4067 121.099 17.8692 120.179 17.5094L119.086 20.3031C119.604 20.5058 120.034 20.7964 120.393 21.1775L122.576 19.1194ZM120.216 17.5244C119.304 17.1391 118.328 16.9654 117.308 16.9846L117.364 19.9841C118.001 19.9721 118.556 20.0797 119.049 20.2881L120.216 17.5244ZM117.365 16.9847C116.356 16.9652 115.384 17.1407 114.466 17.5199L115.612 20.2926C116.131 20.078 116.691 19.9723 117.307 19.9841L117.365 16.9847ZM114.482 17.5135C113.586 17.8719 112.791 18.4004 112.103 19.0878L114.225 21.2091C114.631 20.8027 115.086 20.5031 115.596 20.299L114.482 17.5135ZM112.088 19.1033C111.407 19.8045 110.883 20.6394 110.506 21.5835L113.291 22.6977C113.538 22.0794 113.859 21.5861 114.24 21.1936L112.088 19.1033ZM110.506 21.5835C110.112 22.5667 109.93 23.6346 109.93 24.7656H112.93C112.93 23.9591 113.059 23.2771 113.291 22.6977L110.506 21.5835ZM151.836 35.7344H153.336V33.1496L151.092 34.432L151.836 35.7344ZM137.258 33.5312L136.197 34.5919L136.204 34.5992L136.212 34.6063L137.258 33.5312ZM134.539 19.6562L133.152 19.0844L133.149 19.0917L134.539 19.6562ZM137.141 15.6953L138.209 16.7486L138.216 16.7411L137.141 15.6953ZM146.164 11.9922L146.185 10.4923L146.168 10.4921L146.151 10.4922L146.164 11.9922ZM149.211 12.3438L148.865 13.8032L148.87 13.8045L149.211 12.3438ZM151.836 13.2344L151.207 14.5963L153.336 15.5787V13.2344H151.836ZM151.836 12.7188V11.2188H150.336V12.7188H151.836ZM158.938 12.7188H160.438V11.2188H158.938V12.7188ZM157.883 41.2891L156.527 40.6469L156.525 40.6524L157.883 41.2891ZM155.047 44.9922L154.099 43.8299L154.09 43.8367L154.082 43.8436L155.047 44.9922ZM150.945 47.1719L150.514 45.7351L150.501 45.7391L150.945 47.1719ZM140.117 47.0312L139.658 48.4592L139.661 48.4603L140.117 47.0312ZM135.312 44.6875L134.005 43.9515L133.338 45.1365L134.452 45.9163L135.312 44.6875ZM138.242 39.4844L139.049 38.2196L137.713 37.3676L136.935 38.7484L138.242 39.4844ZM141.758 41.1016L142.216 39.6733L142.208 39.6708L142.2 39.6683L141.758 41.1016ZM148.297 41.4297L147.918 39.9782L147.91 39.9803L148.297 41.4297ZM150.148 40.4688L149.195 39.3109L149.176 39.3261L149.158 39.342L150.148 40.4688ZM149.727 29.8281L150.522 31.1001L150.528 31.0964L149.727 29.8281ZM151.836 27.625L153.14 28.3668L153.333 28.0274L153.336 27.6369L151.836 27.625ZM151.883 21.7188L153.383 21.7307L153.386 21.3454L153.203 21.0064L151.883 21.7188ZM146.703 18.4844L146.725 16.9845L146.699 16.9842L146.673 16.9847L146.703 18.4844ZM144.453 18.9531L144.99 20.3539L145.002 20.349L145.015 20.3438L144.453 18.9531ZM142.531 20.1719L141.486 19.096L141.478 19.1035L141.471 19.1112L142.531 20.1719ZM141.266 22.0703L142.641 22.6684L142.646 22.6576L141.266 22.0703ZM144.406 30.2266L143.834 31.613L143.852 31.6204L143.87 31.6273L144.406 30.2266ZM151.092 34.432C150.322 34.8718 149.574 35.1755 148.847 35.3573L149.575 38.2677C150.598 38.012 151.6 37.597 152.58 37.0367L151.092 34.432ZM148.847 35.3573C148.092 35.5461 147.323 35.6406 146.539 35.6406V38.6406C147.567 38.6406 148.58 38.5164 149.575 38.2677L148.847 35.3573ZM146.539 35.6406C144.838 35.6406 143.305 35.3507 141.924 34.7898L140.795 37.5695C142.57 38.2899 144.49 38.6406 146.539 38.6406V35.6406ZM141.924 34.7898C140.515 34.2179 139.314 33.4387 138.304 32.4562L136.212 34.6063C137.514 35.8738 139.048 36.8602 140.795 37.5695L141.924 34.7898ZM138.318 32.4706C137.322 31.4746 136.54 30.298 135.972 28.9261L133.2 30.0739C133.913 31.7958 134.912 33.3067 136.197 34.5919L138.318 32.4706ZM135.972 28.9261C135.413 27.5757 135.125 26.0929 135.125 24.4609H132.125C132.125 26.454 132.478 28.3305 133.2 30.0739L135.972 28.9261ZM135.125 24.4609C135.125 22.9412 135.396 21.5323 135.929 20.2208L133.149 19.0917C132.463 20.7802 132.125 22.5745 132.125 24.4609H135.125ZM135.926 20.2281C136.48 18.8852 137.241 17.73 138.209 16.7485L136.073 14.6421C134.822 15.9106 133.849 17.3961 133.152 19.0844L135.926 20.2281ZM138.216 16.7411C139.178 15.7516 140.337 14.9636 141.711 14.3809L140.539 11.6191C138.819 12.3489 137.322 13.3578 136.065 14.6495L138.216 16.7411ZM141.711 14.3809C143.063 13.8074 144.546 13.5062 146.177 13.4921L146.151 10.4922C144.157 10.5094 142.281 10.8801 140.539 11.6191L141.711 14.3809ZM146.143 13.492C147.161 13.5064 148.066 13.6136 148.865 13.8032L149.557 10.8843C148.513 10.6364 147.386 10.5092 146.185 10.4923L146.143 13.492ZM148.87 13.8045C149.716 14.0019 150.494 14.267 151.207 14.5963L152.465 11.8724C151.553 11.4517 150.581 11.1231 149.552 10.883L148.87 13.8045ZM153.336 13.2344V12.7188H150.336V13.2344H153.336ZM151.836 14.2188H158.938V11.2188H151.836V14.2188ZM157.438 12.7188V35.9922H160.438V12.7188H157.438ZM157.438 35.9922C157.438 37.8702 157.115 39.4064 156.527 40.6469L159.238 41.9312C160.057 40.203 160.438 38.2079 160.438 35.9922H157.438ZM156.525 40.6524C155.909 41.9655 155.098 43.0147 154.099 43.8299L155.995 46.1545C157.371 45.0322 158.45 43.6127 159.241 41.9257L156.525 40.6524ZM154.082 43.8436C153.077 44.6881 151.894 45.3212 150.514 45.7351L151.376 48.6086C153.121 48.0851 154.673 47.265 156.012 46.1407L154.082 43.8436ZM150.501 45.7391C149.09 46.1767 147.599 46.3984 146.023 46.3984V49.3984C147.885 49.3984 149.676 49.1358 151.389 48.6046L150.501 45.7391ZM146.023 46.3984C144.035 46.3984 142.222 46.1282 140.573 45.6022L139.661 48.4603C141.637 49.0906 143.762 49.3984 146.023 49.3984V46.3984ZM140.577 45.6033C138.908 45.0666 137.444 44.3489 136.173 43.4587L134.452 45.9163C135.993 46.9949 137.732 47.8396 139.658 48.4592L140.577 45.6033ZM136.62 45.4235L139.549 40.2203L136.935 38.7484L134.005 43.9515L136.62 45.4235ZM137.436 40.7491C138.631 41.5114 139.926 42.106 141.315 42.5348L142.2 39.6683C141.058 39.3158 140.01 38.8323 139.049 38.2196L137.436 40.7491ZM141.299 42.5298C142.735 42.9907 144.299 43.2109 145.977 43.2109V40.2109C144.56 40.2109 143.312 40.025 142.216 39.6733L141.299 42.5298ZM145.977 43.2109C146.931 43.2109 147.836 43.105 148.683 42.879L147.91 39.9803C147.352 40.1294 146.71 40.2109 145.977 40.2109V43.2109ZM148.676 42.8811C149.602 42.6395 150.433 42.2155 151.139 41.5955L149.158 39.342C148.833 39.6282 148.43 39.8449 147.918 39.9783L148.676 42.8811ZM151.102 41.6266C151.86 41.002 152.411 40.1848 152.785 39.2396L149.996 38.1354C149.776 38.6902 149.499 39.0605 149.195 39.3109L151.102 41.6266ZM152.785 39.2396C153.174 38.2572 153.336 37.1089 153.336 35.8516H150.336C150.336 36.8755 150.201 37.6178 149.996 38.1354L152.785 39.2396ZM153.336 35.8516V35.7344H150.336V35.8516H153.336ZM146.773 32.1484C148.131 32.1484 149.394 31.8051 150.522 31.1001L148.932 28.5561C148.309 28.9449 147.604 29.1484 146.773 29.1484V32.1484ZM150.528 31.0964C151.624 30.4037 152.501 29.4894 153.14 28.3668L150.532 26.8832C150.14 27.5731 149.61 28.1275 148.926 28.5599L150.528 31.0964ZM153.336 27.6369L153.383 21.7307L150.383 21.7068L150.336 27.6131L153.336 27.6369ZM153.203 21.0064C152.552 19.8004 151.648 18.8241 150.5 18.1042L148.906 20.6458C149.602 21.0822 150.151 21.6683 150.563 22.4311L153.203 21.0064ZM150.5 18.1042C149.348 17.3817 148.08 17.0042 146.725 16.9845L146.681 19.9842C147.482 19.9958 148.215 20.2121 148.906 20.6458L150.5 18.1042ZM146.673 16.9847C145.718 17.0042 144.788 17.1996 143.891 17.5625L145.015 20.3438C145.587 20.1129 146.157 19.9958 146.734 19.9841L146.673 16.9847ZM143.917 17.5523C142.999 17.904 142.183 18.4186 141.486 19.096L143.576 21.2478C143.973 20.8627 144.439 20.5648 144.99 20.3539L143.917 17.5523ZM141.471 19.1112C140.795 19.7866 140.268 20.583 139.885 21.483L142.646 22.6576C142.888 22.0889 143.205 21.6196 143.592 21.2325L141.471 19.1112ZM139.89 21.4722C139.485 22.4038 139.297 23.4159 139.297 24.4844H142.297C142.297 23.7716 142.421 23.1744 142.641 22.6684L139.89 21.4722ZM139.297 24.4844C139.297 25.5904 139.482 26.6379 139.877 27.6059L142.654 26.4722C142.425 25.909 142.297 25.2533 142.297 24.4844H139.297ZM139.877 27.6059C140.257 28.5376 140.785 29.359 141.471 30.045L143.592 27.9237C143.215 27.5472 142.899 27.0717 142.654 26.4722L139.877 27.6059ZM141.471 30.045C142.146 30.7208 142.939 31.2434 143.834 31.613L144.979 28.8402C144.436 28.616 143.979 28.3104 143.592 27.9237L141.471 30.045ZM143.87 31.6273C144.788 31.9788 145.76 32.1484 146.773 32.1484V29.1484C146.1 29.1484 145.494 29.0368 144.943 28.8258L143.87 31.6273Z" fill="#1877F2"/>
</svg>
