<svg width="43" height="43" viewBox="0 0 43 43" fill="none" xmlns="http://www.w3.org/2000/svg">
<g clip-path="url(#clip0_1_164)">
<path d="M43 21.5C43 9.62465 33.3753 0 21.5 0C9.62465 0 0 9.62465 0 21.5C0 32.2332 7.86094 41.1272 18.1406 42.7397V27.7148H12.6816V21.5H18.1406V16.7633C18.1406 11.3756 21.3489 8.39844 26.2619 8.39844C28.6135 8.39844 31.0742 8.81836 31.0742 8.81836V14.1094H28.3615C25.6908 14.1094 24.8594 15.7681 24.8594 17.4688V21.5H30.8222L29.8691 27.7148H24.8594V42.7397C35.1391 41.1272 43 32.2332 43 21.5Z" fill="#1877F2"/>
<path d="M29.8691 27.7148L30.8223 21.5H24.8594V17.4688C24.8594 15.7681 25.6908 14.1094 28.3616 14.1094H31.0743V8.81836C31.0743 8.81836 28.6135 8.39844 26.2619 8.39844C21.3489 8.39844 18.1407 11.3756 18.1407 16.7633V21.5H12.6816V27.7148H18.1407V42.7397C19.2366 42.9118 20.3579 43 21.5 43C22.6422 43 23.7635 42.9118 24.8594 42.7397V27.7148H29.8691Z" fill="white"/>
</g>
<defs>
<clipPath id="clip0_1_164">
<rect width="43" height="43" fill="white"/>
</clipPath>
</defs>
</svg>
