<svg width="26" height="25" viewBox="0 0 26 25" fill="none" xmlns="http://www.w3.org/2000/svg">
<g clip-path="url(#clip0_1_198)">
<path d="M13 0C5.83093 0 0 5.60667 0 12.5C0 19.3933 5.83093 25 13 25C20.1691 25 26 19.3933 26 12.5C26 5.60667 20.1691 0 13 0ZM13 23.3333C6.78773 23.3333 1.73333 18.4733 1.73333 12.5C1.73333 6.52667 6.78773 1.66667 13 1.66667C19.2123 1.66667 24.2667 6.52667 24.2667 12.5C24.2667 18.4733 19.2123 23.3333 13 23.3333Z" fill="#1877F2"/>
<path d="M13.8667 5.83334H12.1333V11.6667H6.06665V13.3333H12.1333V19.1667H13.8667V13.3333H19.9333V11.6667H13.8667V5.83334Z" fill="#1877F2"/>
</g>
<defs>
<clipPath id="clip0_1_198">
<rect width="26" height="25" fill="white"/>
</clipPath>
</defs>
</svg>
